# xmcd
#
# Track frame offsets: 
#        150
#        17258
#        31370
#        45639
#        56341
#        67214
#        81622
#        98475
#        109804
#        120771
#        131585
#        143249
#        157379
#        168604
#        180320
#        191190
#        205661
#        221867
#        234826
#
# Disc length: 3298 seconds
#
# Revision: 0
# Processed by: cddbd v1.5.2PL0 Copyright (c) Steve Scherf et al.
# Submitted via: ExactAudioCopy v0.95b4
#
DISCID=0b0ce013
DTITLE=Saskatoon Rythmaires - Saskatoon Rythmaires
DYEAR=2005
DGENRE=Polka
TTITLE0=If I Never Get to Heaven
TTITLE1=Bye Bye Blues
TTITLE2=Life in the Finland Woods
TTITLE3=Heartaches by the Number
TTITLE4=I love to Polka
TTITLE5=I'll Need Someone to Hold Me
TTITLE6=Via Con Dios
TTITLE7=Love Letters in the Sand
TTITLE8=Johnson Rag
TTITLE9=Ye All Come
TTITLE10=Dark Shadow
TTITLE11=My Blue Heaven
TTITLE12=VO Polka.. By Doreen
TTITLE13=Save the Last Dance
TTITLE14=Shine
TTITLE15=Your Cheating Heart
TTITLE16=Sometime
TTITLE17=Yellow Bird
TTITLE18=We'll Meet Again
EXTD=
EXTT0=
EXTT1=
EXTT2=
EXTT3=
EXTT4=
EXTT5=
EXTT6=
EXTT7=
EXTT8=
EXTT9=
EXTT10=
EXTT11=
EXTT12=
EXTT13=
EXTT14=
EXTT15=
EXTT16=
EXTT17=
EXTT18=
PLAYORDER=
